<?xml version="1.0" encoding="utf-8"?>
<svg width="256" height="256" fill="none" viewBox="0 0 256 256" xmlns="http://www.w3.org/2000/svg">
  <rect width="256" height="256" fill="#242938" rx="60"/>
  <g transform="matrix(1, 0, 0, 1, 49.341637, 283.310883)" style="opacity: 1;">
    <g transform="matrix(1.046826, 0, 0, 1.046826, 190.323334, 320.248199)" style="">
      <path class="st0" d="M-47.14-535.193c5.58,0,9.919,4.341,9.919,9.922c0,5.579-4.339,9.921-9.919,9.921 c-5.582,0-9.922-4.342-9.922-9.921C-57.062-530.233-52.723-535.193-47.14-535.193 M-83.104-535.193 c5.578,0,9.922,4.341,9.922,9.922c0,5.579-4.343,9.921-9.922,9.921c-5.579,0-9.923-4.342-9.923-9.921 C-93.027-530.233-88.683-535.193-83.104-535.193 M-73.182-413.663v-92.387c0-1.858-1.243-3.1-3.103-3.1h-13.641 c-1.858,0-3.1,1.242-3.1,3.1v92.387c0,1.86,1.242,3.1,3.1,3.1h13.641C-74.426-411.184-73.182-412.421-73.182-413.663 M-108.528-411.184v-97.346c-7.439,0-19.222,4.96-19.222,15.501v66.344c-4.338,0.621-10.541,1.243-14.258,1.243 c-12.404,0-15.501-8.683-15.501-20.464v-47.745c-0.621-11.78-13.643-14.88-19.222-14.88v62.006 c0,22.319,11.161,36.581,34.723,36.581c3.717,0,11.161-1.242,14.258-1.861l0.164,1.608c0.858,19.313-20.625,11.415-33.024,10.173 c-9.302,0-15.501,7.441-17.364,16.122c5.581,1.86,22.944,3.721,35.344,4.96C-120.306-378.321-108.528-390.72-108.528-411.184 M-37.84-413.663v-92.387c0-1.858-1.24-3.1-3.1-3.1h-13.641c-1.86,0-3.102,1.242-3.102,3.1v92.387c0,1.86,1.242,3.1,3.102,3.1 h13.641C-39.08-411.184-37.84-412.421-37.84-413.663" style="fill: rgb(255, 255, 255);"/>
    </g>
  </g>
</svg>